<svg width="24px"  height="24px"  viewBox="0 0 24 25" fill="none" xmlns="http://www.w3.org/2000/svg">
<path fill-rule="evenodd" clip-rule="evenodd" d="M16.229 10.5708L14.138 16.2278C13.895 16.8838 13.312 17.3288 12.617 17.3878C12.564 17.3928 12.512 17.3948 12.46 17.3948C11.826 17.3948 11.247 17.0638 10.923 16.5058L9.84 14.6648L7.998 13.5858C7.396 13.2338 7.061 12.5838 7.123 11.8888C7.185 11.1948 7.629 10.6138 8.283 10.3738L13.935 8.27479C14.605 8.03279 15.327 8.19679 15.824 8.69879C16.318 9.19879 16.474 9.91579 16.229 10.5708ZM16.217 3.00879H7.783C4.623 3.00879 2.5 5.23079 2.5 8.53879V16.4778C2.5 19.7858 4.623 22.0088 7.783 22.0088H16.216C19.377 22.0088 21.5 19.7858 21.5 16.4778V8.53879C21.5 5.23079 19.377 3.00879 16.217 3.00879Z" fill="#d9d9d9" />
<path fill-rule="evenodd" clip-rule="evenodd" d="M14.5547 9.66455C14.5227 9.66455 14.4887 9.66955 14.4507 9.68355L8.80273 11.7806C8.65473 11.8356 8.62273 11.9556 8.61773 12.0216C8.61073 12.0886 8.62073 12.2126 8.75573 12.2906L10.7527 13.4606C10.7987 13.4876 10.8417 13.5186 10.8807 13.5556C10.9207 13.5926 10.9837 13.6636 11.0147 13.7086L12.2177 15.7486C12.2987 15.8886 12.4207 15.8906 12.4887 15.8936C12.5557 15.8886 12.6767 15.8556 12.7317 15.7076L14.8227 10.0486C14.8767 9.90355 14.8047 9.80255 14.7577 9.75455C14.7207 9.71655 14.6517 9.66455 14.5547 9.66455Z" fill="#d9d9d9" />
</svg>